<svg width="400" height="300" viewBox="0 0 400 300" fill="none" xmlns="http://www.w3.org/2000/svg">
  <!-- Background shapes -->
  <ellipse cx="80" cy="60" rx="40" ry="25" fill="#F0F9FF" opacity="0.6"/>
  <ellipse cx="320" cy="80" rx="50" ry="30" fill="#E0F2FE" opacity="0.8"/>
  <ellipse cx="350" cy="200" rx="35" ry="20" fill="#F0F9FF" opacity="0.5"/>
  
  <!-- Main figure -->
  <circle cx="200" cy="100" r="25" fill="#E55F4C"/>
  <rect x="185" y="130" width="30" height="60" rx="5" fill="#3B82F6"/>
  <rect x="175" y="140" width="15" height="30" rx="3" fill="#E55F4C"/>
  <rect x="210" y="140" width="15" height="30" rx="3" fill="#E55F4C"/>
  <rect x="190" y="200" width="8" height="25" fill="#6B7280"/>
  <rect x="202" y="200" width="8" height="25" fill="#6B7280"/>
  
  <!-- Abstract elements -->
  <path d="M50 180C60 170 80 175 90 185C100 195 120 190 130 180" stroke="#E55F4C" stroke-width="2" fill="none" opacity="0.4"/>
  <circle cx="300" cy="250" r="8" fill="#3B82F6" opacity="0.6"/>
  <circle cx="320" cy="240" r="6" fill="#E55F4C" opacity="0.5"/>
  <circle cx="340" cy="260" r="4" fill="#F59E0B" opacity="0.7"/>
</svg>