<svg xmlns="http://www.w3.org/2000/svg" viewBox="0 0 48 48" id="innovation">
  <path d="M43 15.9C42.93 4.31 30.33-3.83 19.56 1.84A2 2 0 0 0 17 1.77 1.93 1.93 0 0 0 15.07 0h-2.14A1.93 1.93 0 0 0 11 1.77a2 2 0 0 0-2.62.11l-1.5 1.51A1.93 1.93 0 0 0 6.77 6 1.93 1.93 0 0 0 5 7.93v2.14A1.93 1.93 0 0 0 6.77 12a2 2 0 0 0-.46 1.25c0 1 .51 1.31 2.08 2.88a2 2 0 0 0 2.62.11 16.09 16.09 0 0 0 1.11 5.64c2.17 5.52 5.79 5.88 6.84 12.94a3 3 0 0 0-.18 4.18A3 3 0 0 0 21 44h1.1a5 5 0 0 0 9.8 0H33a3 3 0 0 0 2.22-5 3 3 0 0 0-.22-4.19c1.33-8.58 8.05-8.9 8-18.91ZM9.76 14.66l-1.42-1.42A1.93 1.93 0 0 0 7 10V8a1.93 1.93 0 0 0 1.34-3.24l1.42-1.42A1.93 1.93 0 0 0 13 2h2a1.93 1.93 0 0 0 3.24 1.34l1.42 1.42A1.93 1.93 0 0 0 21 8v2a1.93 1.93 0 0 0-1.34 3.24l-1.42 1.42A1.93 1.93 0 0 0 15 16h-2a1.93 1.93 0 0 0-3.24-1.34ZM24.17 44h5.66a3 3 0 0 1-5.66 0ZM33 42H21a1 1 0 0 1 0-2h12a1 1 0 0 1 0 2Zm0-4H21a1 1 0 0 1 0-2h12a1 1 0 0 1 0 2Zm-12-4V21.88l6-.75V34Zm7.66-14.75c-.37-.34-.64-.26-1.66-.13V15h6v19h-4c0-15.1.15-14.33-.34-14.75Zm6.34 9.6V14a1 1 0 0 0-1-1h-8a1 1 0 0 0-1 1v5.37l-5.12.63a1 1 0 0 0-.88 1v7.74c-2.06-3.77-5-5-5.84-10.74h1.91A1.93 1.93 0 0 0 17 16.23a2 2 0 0 0 2.62-.11l1.51-1.51a1.93 1.93 0 0 0 .1-2.61A1.93 1.93 0 0 0 23 10.07V7.93A1.93 1.93 0 0 0 21.23 6a1.92 1.92 0 0 0-.18-2.68A14.07 14.07 0 0 1 41 15.92a13.92 13.92 0 0 1-3.47 9.3A19.92 19.92 0 0 0 35 28.85Z"></path>
  <path d="M18 9a4 4 0 1 0-4 4 4 4 0 0 0 4-4Zm-4 2a2 2 0 1 1 2-2 2 2 0 0 1-2 2Z"></path>
</svg>
